<?xml version="1.0" standalone="no"?>
<!DOCTYPE svg PUBLIC "-//W3C//DTD SVG 20010904//EN"
 "http://www.w3.org/TR/2001/REC-SVG-20010904/DTD/svg10.dtd">
<svg version="1.0" xmlns="http://www.w3.org/2000/svg"
 width="1893.000000pt" height="819.000000pt" viewBox="0 0 1893.000000 819.000000"
 preserveAspectRatio="xMidYMid meet">

<g transform="translate(0.000000,819.000000) scale(0.100000,-0.100000)"
fill="#000000" stroke="none">
<path d="M4190 8150 c-8 -5 -25 -10 -37 -10 -13 0 -23 -4 -23 -10 0 -5 -5 -10
-11 -10 -14 0 -77 -47 -116 -87 -17 -18 -33 -33 -35 -33 -3 0 -27 -22 -55 -48
-28 -27 -70 -64 -93 -83 -50 -41 -71 -60 -171 -153 -42 -39 -96 -87 -120 -106
-44 -36 -140 -123 -190 -172 -16 -16 -31 -28 -33 -28 -3 0 -16 -10 -28 -22
-53 -51 -203 -185 -282 -252 -27 -22 -65 -58 -85 -78 -20 -21 -42 -38 -48 -38
-7 0 -13 -4 -13 -9 0 -4 -26 -29 -57 -54 -32 -25 -83 -69 -114 -99 -31 -29
-85 -78 -120 -108 -35 -30 -79 -70 -97 -87 -18 -18 -34 -33 -36 -33 -2 0 -24
-19 -48 -42 -25 -24 -58 -54 -75 -68 -63 -52 -190 -167 -255 -230 -36 -36 -86
-81 -109 -100 -45 -36 -142 -124 -191 -172 -15 -16 -29 -28 -32 -28 -2 0 -18
-14 -36 -30 -18 -17 -55 -49 -82 -73 -28 -23 -67 -58 -87 -77 -20 -20 -65 -60
-101 -90 -36 -29 -81 -70 -100 -89 -20 -20 -62 -58 -95 -86 -69 -59 -155 -136
-204 -185 -20 -19 -70 -63 -111 -97 -41 -34 -82 -71 -90 -82 -8 -12 -18 -21
-21 -21 -4 0 -27 -18 -51 -41 -23 -22 -60 -55 -82 -72 -21 -18 -53 -45 -70
-62 -89 -83 -156 -143 -195 -175 -23 -19 -62 -53 -86 -75 -106 -99 -157 -145
-161 -145 -7 0 -85 -83 -95 -101 -13 -25 -11 -58 4 -73 37 -38 59 -41 322 -46
l260 -5 49 -29 c82 -48 123 -98 142 -171 5 -16 11 -865 14 -1885 l5 -1855 23
-47 c20 -40 57 -79 119 -129 7 -5 19 -9 26 -9 8 0 31 -7 50 -15 30 -12 92 -15
336 -15 299 0 300 0 315 22 14 20 16 188 16 1593 0 1514 1 1574 20 1685 11 63
29 156 40 205 12 50 23 101 26 115 3 14 12 39 20 57 8 17 14 38 14 47 0 9 4
24 9 34 5 9 24 53 41 97 59 148 217 450 250 475 3 3 16 22 29 43 12 20 27 37
32 37 5 0 9 7 9 15 0 8 4 15 8 15 5 0 13 9 18 19 22 47 239 276 369 389 70 62
192 152 203 152 6 0 12 3 14 8 4 10 116 82 128 82 5 0 10 4 10 10 0 5 11 12
25 16 14 3 25 10 25 15 0 5 8 9 19 9 10 0 24 7 31 15 7 8 21 15 31 15 11 0 19
5 19 10 0 6 4 10 9 10 6 0 47 17 93 39 46 21 101 45 123 52 22 7 44 17 50 21
5 4 21 8 35 8 14 0 34 6 45 14 11 7 34 16 50 19 17 3 57 13 90 22 123 35 380
74 535 80 239 11 532 -20 745 -80 33 -9 76 -19 95 -22 19 -3 37 -9 40 -13 3
-3 30 -14 60 -24 95 -30 242 -93 360 -155 8 -5 31 -16 50 -26 43 -22 250 -158
282 -185 13 -10 52 -43 88 -72 36 -28 72 -60 81 -70 9 -10 19 -18 22 -18 3 0
39 -35 79 -77 40 -42 84 -88 98 -102 14 -15 45 -51 70 -81 25 -30 48 -56 53
-58 4 -2 7 -8 7 -13 0 -6 11 -22 25 -37 14 -15 25 -32 25 -39 0 -7 5 -13 10
-13 6 0 10 -4 10 -10 0 -5 17 -33 38 -62 39 -55 59 -90 113 -198 17 -36 35
-67 38 -70 11 -8 111 -254 111 -272 0 -9 5 -20 10 -23 6 -3 10 -15 10 -25 0
-11 6 -34 14 -52 24 -56 66 -256 86 -413 35 -272 17 -641 -42 -863 -11 -43
-23 -93 -27 -112 -4 -19 -13 -45 -19 -57 -7 -12 -12 -33 -12 -47 0 -14 -4 -28
-10 -31 -6 -3 -10 -16 -10 -28 0 -13 -6 -31 -13 -42 -7 -11 -19 -38 -26 -60
-14 -42 -125 -269 -168 -345 -14 -25 -41 -66 -59 -93 -19 -26 -34 -49 -34 -52
0 -3 -11 -18 -25 -33 -14 -15 -25 -31 -25 -35 0 -5 -6 -14 -12 -21 -7 -7 -24
-28 -38 -46 -52 -69 -310 -340 -324 -340 -4 0 -25 -16 -46 -36 -22 -20 -50
-44 -62 -53 -13 -8 -34 -25 -47 -37 -13 -12 -35 -28 -50 -36 -14 -7 -30 -19
-34 -25 -4 -7 -12 -13 -18 -13 -5 0 -40 -20 -77 -45 -37 -25 -72 -45 -79 -45
-7 0 -13 -4 -13 -10 0 -5 -11 -12 -25 -16 -14 -3 -25 -10 -25 -15 0 -5 -11 -9
-24 -9 -13 0 -26 -7 -30 -15 -3 -8 -12 -15 -20 -15 -8 0 -36 -11 -63 -24 -58
-30 -143 -66 -153 -66 -4 0 -10 651 -14 1448 -7 1404 -7 1448 -26 1487 -27 55
-59 89 -100 105 -19 7 -39 17 -44 22 -6 4 -332 8 -726 8 l-716 0 -51 -24 c-52
-25 -113 -88 -113 -116 0 -9 -4 -20 -9 -25 -6 -6 -12 -597 -17 -1453 -6 -1318
-8 -1442 -23 -1437 -46 18 -71 16 -108 -6 -21 -13 -40 -26 -43 -29 -3 -4 -20
-13 -37 -21 -18 -8 -33 -17 -33 -22 0 -4 -10 -11 -23 -16 -13 -5 -61 -34 -106
-65 -45 -31 -84 -56 -87 -56 -3 0 -20 -11 -38 -25 -18 -14 -36 -25 -39 -25 -6
0 -222 -141 -243 -158 -6 -5 -20 -13 -32 -16 -12 -4 -22 -12 -22 -17 0 -5 -5
-9 -10 -9 -9 0 -70 -37 -134 -83 -11 -8 -16 -19 -12 -25 5 -9 607 -12 2539
-12 2227 0 2535 2 2561 15 15 8 36 15 45 15 10 0 27 9 39 20 12 11 24 20 27
20 14 0 58 59 83 110 l27 55 3 1860 c1 1206 6 1863 12 1869 6 6 10 18 10 28 0
22 11 37 63 89 73 72 82 73 372 79 253 5 261 6 303 29 52 30 57 66 15 110 -16
16 -35 38 -44 48 -9 10 -40 38 -70 63 -29 25 -67 59 -84 75 -39 36 -112 102
-191 171 -32 29 -78 69 -101 90 -23 22 -80 72 -127 113 -47 41 -86 78 -86 83
0 4 -5 8 -11 8 -7 0 -21 10 -33 23 -11 13 -55 52 -96 88 -41 35 -104 92 -140
126 -36 34 -78 72 -95 84 -16 13 -52 43 -79 68 -80 76 -89 84 -161 146 -38 33
-83 73 -100 89 -16 15 -59 54 -95 84 -36 31 -80 71 -98 89 -18 18 -35 33 -38
33 -2 0 -17 12 -33 28 -36 35 -176 161 -208 187 -14 11 -42 36 -62 55 -36 33
-117 106 -239 215 -31 28 -70 62 -85 78 -16 15 -31 27 -34 27 -3 0 -15 10 -27
23 -11 13 -55 52 -96 88 -41 35 -92 81 -115 102 -22 21 -62 57 -89 80 -45 38
-121 107 -180 162 -12 11 -52 47 -91 80 -38 33 -79 69 -90 80 -12 11 -52 47
-90 80 -38 33 -86 77 -108 98 -22 20 -41 37 -44 37 -2 0 -16 12 -32 28 -35 34
-175 161 -207 186 -13 11 -41 35 -63 55 -65 60 -180 163 -239 216 -31 28 -70
62 -85 78 -16 15 -31 27 -34 27 -3 0 -15 10 -27 23 -29 32 -106 91 -136 104
-78 33 -168 44 -200 23z m723 -6140 l167 0 0 -40 0 -40 -220 0 -220 0 0 46 0
47 53 -7 c28 -3 127 -6 220 -6z"/>
<path d="M12985 4449 c-271 -41 -433 -195 -465 -440 -21 -160 21 -281 134
-387 111 -103 223 -159 496 -246 235 -75 300 -125 308 -235 10 -139 -108 -231
-298 -231 -122 0 -231 37 -341 115 l-46 33 -103 -103 -103 -103 73 -48 c88
-56 202 -107 307 -136 64 -17 107 -21 238 -22 146 0 167 2 236 25 89 30 175
84 225 143 81 91 133 264 120 390 -23 220 -242 399 -626 511 -69 20 -144 45
-167 55 -57 25 -130 94 -144 137 -27 82 14 180 95 228 134 78 346 60 480 -43
27 -20 55 -41 62 -47 15 -11 73 41 167 149 l51 59 -29 24 c-79 64 -233 132
-354 158 -90 18 -244 25 -316 14z"/>
<path d="M16470 4454 c-192 -22 -338 -82 -488 -199 -232 -181 -369 -515 -332
-810 44 -354 282 -645 622 -761 202 -69 450 -55 653 36 138 62 279 178 371
305 49 67 108 193 134 285 30 106 37 278 16 398 -73 416 -424 724 -849 745
-51 3 -108 3 -127 1z m260 -323 c182 -57 334 -204 397 -382 34 -98 43 -245 19
-339 -31 -122 -79 -205 -169 -294 -125 -125 -249 -176 -427 -176 -104 0 -180
18 -280 67 -190 93 -330 323 -330 543 0 281 226 550 501 599 78 14 214 6 289
-18z"/>
<path d="M9420 3545 l0 -875 150 0 150 0 0 365 0 365 363 -2 362 -3 -4 -362
-4 -363 152 0 151 0 0 875 0 875 -151 0 -152 0 4 -362 4 -363 -362 -3 -363 -2
0 365 0 365 -150 0 -150 0 0 -875z"/>
<path d="M10907 3848 c4 -651 5 -660 80 -811 38 -76 62 -108 137 -183 78 -78
105 -98 186 -137 121 -59 198 -77 331 -77 209 0 364 64 515 215 78 77 98 105
137 185 78 160 77 149 77 803 l0 577 -145 0 -145 0 0 -522 c0 -288 -5 -552
-10 -588 -5 -38 -24 -94 -45 -136 -104 -211 -354 -296 -570 -195 -126 59 -222
185 -244 321 -7 40 -11 273 -11 593 l0 527 -148 0 -148 0 3 -572z"/>
<path d="M13920 3545 l0 -875 150 0 150 0 0 726 0 726 273 -4 c253 -4 276 -6
336 -28 89 -32 202 -110 256 -178 252 -315 133 -756 -243 -905 -71 -28 -88
-31 -232 -35 l-155 -4 -58 -142 c-31 -77 -57 -145 -57 -150 0 -4 100 -6 223
-3 260 5 299 13 462 92 220 107 369 274 444 501 170 508 -150 1047 -674 1139
-68 12 -174 15 -481 15 l-394 0 0 -875z"/>
<path d="M17620 3546 l0 -876 150 0 150 0 0 725 0 725 205 0 c182 0 210 -2
259 -21 73 -27 148 -96 183 -167 24 -49 28 -69 28 -142 0 -78 -3 -90 -34 -148
-38 -70 -90 -120 -160 -153 -36 -17 -70 -23 -153 -27 l-107 -5 -39 -96 c-22
-53 -50 -120 -61 -148 l-21 -53 104 0 103 0 158 -245 157 -245 179 0 178 0
-179 277 -178 277 48 28 c66 37 161 128 205 194 20 30 51 92 67 137 28 73 31
95 32 197 2 182 -46 308 -166 436 -77 82 -162 137 -263 171 l-80 27 -382 4
-383 3 0 -875z"/>
<path d="M10430 895 l0 -875 150 0 150 0 0 726 0 726 273 -4 c313 -5 339 -11
473 -100 154 -103 254 -289 254 -473 0 -239 -159 -459 -390 -542 -66 -23 -94
-27 -226 -31 l-150 -4 -62 -150 -61 -150 227 5 c265 5 304 13 467 92 121 59
217 132 289 221 151 185 224 428 196 655 -47 390 -335 697 -715 764 -68 12
-174 15 -481 15 l-394 0 0 -875z"/>
<path d="M12180 895 l0 -875 150 0 150 0 0 725 0 725 205 0 c184 0 210 -2 262
-21 72 -28 144 -94 180 -168 24 -48 28 -68 28 -141 0 -73 -4 -92 -28 -138 -39
-75 -90 -127 -154 -159 -47 -23 -72 -27 -164 -31 l-108 -5 -60 -146 -60 -146
104 -3 104 -3 157 -244 157 -245 178 0 179 0 -44 68 c-24 37 -104 161 -179
276 l-135 210 57 33 c274 165 376 520 233 813 -51 105 -177 231 -282 282 -126
61 -182 68 -580 68 l-350 0 0 -875z"/>
<path d="M13590 1620 l0 -150 456 -2 456 -3 -456 -600 -456 -600 0 -122 0
-123 665 0 665 0 0 150 0 150 -454 2 -453 3 453 595 453 595 0 128 1 127 -665
0 -665 0 0 -150z"/>
<path d="M15010 1763 c0 -3 117 -378 259 -832 143 -454 265 -845 272 -868 l12
-43 157 0 157 0 167 575 c92 316 172 591 178 611 5 20 13 32 17 28 5 -5 93
-280 197 -611 l189 -603 155 0 155 0 253 868 c139 477 252 870 252 875 0 4
-69 7 -153 7 l-153 0 -174 -602 c-95 -332 -177 -607 -181 -611 -8 -10 4 -46
-199 603 -89 283 -168 536 -176 563 l-16 47 -156 0 -157 0 -174 -603 c-96
-331 -177 -606 -181 -610 -4 -5 -13 6 -18 25 -6 18 -83 265 -172 548 -88 283
-170 543 -181 578 l-21 62 -154 0 c-85 0 -154 -3 -154 -7z"/>
<path d="M17560 895 l0 -875 150 0 150 0 0 875 0 875 -150 0 -150 0 0 -875z"/>
</g>
</svg>
